<svg width="568" height="580" viewBox="0 0 568 580" fill="none" xmlns="http://www.w3.org/2000/svg">
<g clip-path="url(#clip0_404_2)" filter="url(#filter0_d_404_2)">
<path d="M555.591 355.185C518.195 508.401 366.268 601.645 216.249 563.438C66.2925 525.24 -24.9955 370.048 12.417 216.845C49.7966 63.6119 201.724 -29.6392 351.696 8.5582C501.705 46.7556 592.987 201.965 555.587 355.188L555.59 355.185H555.591Z" fill="#F7931A"/>
<path d="M407.467 245.252C413.04 207.192 384.672 186.733 345.88 173.085L358.464 121.529L327.739 113.709L315.488 163.907C307.411 161.849 299.116 159.911 290.871 157.988L303.211 107.458L272.504 99.6383L259.913 151.178C253.229 149.623 246.664 148.087 240.294 146.468L240.33 146.306L197.959 135.498L189.785 169.018C189.785 169.018 212.581 174.355 212.101 174.684C224.543 177.856 226.793 186.269 226.419 192.937L212.084 251.671C212.941 251.894 214.052 252.215 215.278 252.719C214.253 252.458 213.163 252.175 212.031 251.898L191.938 334.177C190.418 338.038 186.558 343.832 177.859 341.632C178.167 342.088 155.528 335.939 155.528 335.939L140.273 371.864L180.257 382.045C187.695 383.95 194.985 385.944 202.163 387.818L189.449 439.966L220.138 447.786L232.73 396.192C241.114 398.517 249.25 400.661 257.216 402.683L244.667 454.033L275.393 461.853L288.107 409.804C340.5 419.932 379.895 415.848 396.478 367.443C409.839 328.472 395.812 305.993 368.248 291.334C388.325 286.605 403.447 273.117 407.478 245.256L407.469 245.249L407.467 245.252ZM337.267 345.8C327.772 384.772 263.532 363.705 242.704 358.422L259.576 289.336C280.403 294.647 347.191 305.157 337.269 345.8H337.267ZM346.769 244.687C338.107 280.136 284.64 262.127 267.295 257.711L282.592 195.053C299.937 199.47 355.793 207.712 346.772 244.687H346.769Z" fill="white"/>
</g>
<defs>
<filter id="filter0_d_404_2" x="0" y="0" width="568" height="580" filterUnits="userSpaceOnUse" color-interpolation-filters="sRGB">
<feFlood flood-opacity="0" result="BackgroundImageFix"/>
<feColorMatrix in="SourceAlpha" type="matrix" values="0 0 0 0 0 0 0 0 0 0 0 0 0 0 0 0 0 0 127 0" result="hardAlpha"/>
<feOffset dy="4"/>
<feGaussianBlur stdDeviation="2"/>
<feComposite in2="hardAlpha" operator="out"/>
<feColorMatrix type="matrix" values="0 0 0 0 0 0 0 0 0 0 0 0 0 0 0 0 0 0 0.25 0"/>
<feBlend mode="normal" in2="BackgroundImageFix" result="effect1_dropShadow_404_2"/>
<feBlend mode="normal" in="SourceGraphic" in2="effect1_dropShadow_404_2" result="shape"/>
</filter>
<clipPath id="clip0_404_2">
<rect width="560" height="572" fill="white" transform="translate(4)"/>
</clipPath>
</defs>
</svg>
